<svg width="214" height="141" viewBox="0 0 214 141" fill="none"
  xmlns="http://www.w3.org/2000/svg">
  <path d="M170.559 0C172.919 0.000249951 174.832 1.91403 174.832 4.27441C174.832 6.63467 172.919 8.5476 170.559 8.54785H170.162V8.54883H168.212C166.281 8.54883 164.715 10.1145 164.715 12.0459C164.715 13.977 166.281 15.542 168.212 15.542H198.967C201.113 15.5421 202.852 17.2819 202.853 19.4277C202.853 21.5736 201.113 23.3134 198.967 23.3135H173.077C173.687 24.0525 174.055 25 174.055 26.0332C174.055 28.3936 172.141 30.3076 169.78 30.3076H127.737C125.377 30.3076 123.463 28.3937 123.463 26.0332C123.463 23.6727 125.377 21.7588 127.737 21.7588H146.811C146.323 21.1095 146.034 20.3023 146.034 19.4277C146.034 17.2819 147.774 15.542 149.92 15.542H153.434C155.365 15.542 156.93 13.977 156.931 12.0459C156.931 10.1145 155.365 8.54883 153.434 8.54883H152.261V8.54785H136.298C133.938 8.54768 132.025 6.63472 132.024 4.27441C132.024 1.91398 133.937 0.000176263 136.298 0H170.559Z" fill="#EEF3F5"/>
  <path d="M33.5605 87.5625C31.4148 87.5624 29.675 85.8225 29.6748 83.6768C29.6748 81.5308 31.4146 79.7911 33.5605 79.791H38.2295C38.1026 79.791 37.9772 79.7844 37.8535 79.7725C39.8169 79.5774 41.3506 77.92 41.3506 75.9053C41.3504 73.7595 39.6106 72.0196 37.4648 72.0195H11.7676C11.3305 72.0195 10.9107 72.0935 10.5186 72.2266C9.4037 71.5438 8.65942 70.3151 8.65918 68.9121C8.65918 66.7662 10.399 65.0264 12.5449 65.0264H67.04C69.1859 65.0265 70.9258 66.7662 70.9258 68.9121C70.9256 70.1826 70.3151 71.3107 69.3721 72.0195H50.6836C48.5377 72.0195 46.798 73.7594 46.7979 75.9053C46.7979 78.0512 48.5377 79.791 50.6836 79.791H56.1445C58.2903 79.7912 60.0293 81.5309 60.0293 83.6768C60.0291 85.8224 58.2902 87.5623 56.1445 87.5625H33.5605Z" fill="#EEF3F5"/>
  <path d="M153.673 119.96C155.849 119.96 157.613 121.724 157.613 123.9C157.613 126.077 155.849 127.841 153.673 127.841H141.852C139.668 128.483 139.668 131.576 141.852 132.219H146.668C148.844 132.219 150.608 133.983 150.608 136.159C150.608 138.335 148.844 140.099 146.668 140.1H54.7275C52.5514 140.1 50.7871 138.335 50.7871 136.159C50.7872 133.983 52.5514 132.219 54.7275 132.219H69.1748C71.3206 131.548 71.3206 128.511 69.1748 127.841H66.1104C63.9342 127.841 62.1699 126.077 62.1699 123.9C62.17 121.724 63.9343 119.96 66.1104 119.96H153.673ZM169.434 132.219C171.61 132.219 173.374 133.983 173.374 136.159C173.374 138.335 171.61 140.1 169.434 140.1H160.678C158.502 140.1 156.737 138.335 156.737 136.159C156.737 133.983 158.502 132.219 160.678 132.219H169.434ZM181.692 132.219C183.868 132.219 185.633 133.983 185.633 136.159C185.633 138.335 183.869 140.1 181.692 140.1C179.516 140.099 177.752 138.335 177.752 136.159C177.752 133.983 179.516 132.219 181.692 132.219ZM54.7275 119.96C56.9036 119.96 58.6679 121.724 58.668 123.9C58.668 126.077 56.9036 127.841 54.7275 127.841C52.5514 127.841 50.7871 126.077 50.7871 123.9C50.7872 121.724 52.5514 119.96 54.7275 119.96Z" fill="#D2D9E1"/>
  <rect x="81.4336" y="126.09" width="51.6617" height="5.25374" rx="2.62687" fill="#ABB7C4"/>
  <rect x="91.7285" y="9.07031" width="52.175" height="106.282" rx="7.8806" transform="rotate(6.82873 91.7285 9.07031)" fill="white"/>
  <path d="M80.5496 94.8194L83.9021 66.29L115.957 11.4792L127.282 12.8353L80.5496 94.8194ZM84.7528 59.3173L88.0431 31.7099L100.345 9.60963L110.972 10.8822L84.7528 59.3173Z" fill="url(#paint0_linear_750_14802)"/>
  <path d="M90.8956 16.0256C91.3556 12.1843 94.8425 9.44322 98.6838 9.90322L136.578 14.4411C140.419 14.9011 143.161 18.388 142.701 22.2293L142.27 25.8269L90.4648 19.6232L90.8956 16.0256Z" fill="url(#paint1_linear_750_14802)"/>
  <path fill-rule="evenodd" clip-rule="evenodd" d="M143.775 21.3836C144.235 17.5423 141.494 14.0556 137.653 13.5955L97.8396 8.8278C93.9983 8.36782 90.5115 11.1088 90.0515 14.9501L89.1913 22.1334L89.1003 22.1226C88.6201 22.0651 88.1843 22.4077 88.1268 22.8878L87.8835 24.9191C87.826 25.3993 88.1687 25.8351 88.6488 25.8926L88.7398 25.9035L88.2884 29.6729L88.1973 29.662C87.7172 29.6045 87.2813 29.9471 87.2238 30.4273L86.5291 36.2286C86.4716 36.7088 86.8142 37.1446 87.2944 37.2021L87.3855 37.213L86.934 40.9833L86.8428 40.9724C86.3627 40.9149 85.9268 41.2575 85.8693 41.7377L85.1746 47.539C85.1171 48.0192 85.4597 48.455 85.9399 48.5125L86.031 48.5234L78.8503 108.487C78.3904 112.328 81.1314 115.815 84.9726 116.275L124.786 121.043C128.627 121.503 132.114 118.762 132.574 114.92L139.98 53.072L140.07 53.0827C140.55 53.1402 140.986 52.7976 141.043 52.3174L142.415 40.8609C142.473 40.3808 142.13 39.9449 141.65 39.8874L141.56 39.8767L143.775 21.3836ZM93.3947 18.1437C93.7972 14.7827 96.848 12.3838 100.209 12.786L114.437 14.4899C114.896 14.5723 115.703 14.8021 115.632 15.3936C115.475 16.7107 117.07 16.8559 117.07 16.8559C117.07 16.8559 118.654 17.0914 118.812 15.7744C118.885 15.1637 119.939 15.1714 120.339 15.1967L134.141 16.8495C137.502 17.2521 139.9 20.3035 139.498 23.6646L129.152 110.059C128.749 113.42 125.699 115.818 122.338 115.416L88.4055 111.352C85.0447 110.95 82.6465 107.899 83.0488 104.538L93.3947 18.1437Z" fill="url(#paint2_linear_750_14802)"/>
  <path d="M104.22 65.4693C104.742 65.532 105.231 65.7593 105.616 66.1175C105.852 66.3367 105.962 66.596 106.04 66.7899C106.047 66.8067 106.054 66.8235 106.06 66.8395C106.133 67.0207 106.187 67.1532 106.285 67.2854C107.225 68.5473 108.406 68.6793 110.118 68.8706C110.311 68.8921 110.511 68.9146 110.717 68.9394C111.654 69.0515 112.734 69.0049 113.649 68.8724C114.105 68.8063 114.51 68.7195 114.829 68.6253C115.166 68.5256 115.35 68.4326 115.414 68.3796C115.599 68.2255 115.719 68.096 115.842 67.9626C115.885 67.9153 115.929 67.8668 115.976 67.8174C116.158 67.6281 116.367 67.4458 116.708 67.3317C117.307 67.1314 117.96 67.166 118.533 67.4293C119.107 67.6927 119.56 68.1647 119.799 68.7493C120.037 69.3339 120.043 69.9883 119.818 70.578L119.815 70.5855L119.812 70.594C119.746 70.7477 119.079 72.1452 117.53 73.4032C115.967 74.6723 113.522 75.7833 109.949 75.3555C102.769 74.4956 101.547 68.7065 101.486 68.4171L101.484 68.409C101.359 67.762 101.497 67.0916 101.866 66.5458C102.235 66.0004 102.805 65.6238 103.451 65.4983C103.704 65.4484 103.964 65.4383 104.22 65.4693Z" fill="url(#paint3_linear_750_14802)"/>
  <path d="M97.0527 55.0325C101.076 55.5145 101.779 58.708 101.817 58.8822L101.818 58.8892C101.898 59.2884 101.813 59.7019 101.582 60.0371C101.351 60.3718 100.995 60.5994 100.595 60.6744C100.439 60.7042 100.279 60.7095 100.12 60.6903L100.119 60.6912C99.7966 60.6524 99.4932 60.514 99.2531 60.2953C99.0201 60.0831 98.8579 59.805 98.7899 59.4983C98.7853 59.4835 98.7822 59.4725 98.7795 59.4616C98.7723 59.4325 98.7657 59.4047 98.7254 59.3135C98.6754 59.2003 98.5897 59.0429 98.4481 58.878C98.1719 58.5566 97.656 58.1735 96.6904 58.0577C95.7243 57.9421 95.1301 58.1931 94.7847 58.4403C94.6077 58.567 94.487 58.6987 94.4126 58.7961C94.3855 58.8315 94.3645 58.8626 94.3497 58.8859L94.3094 58.9598C94.1217 59.3013 93.8095 59.558 93.4384 59.6787C93.0676 59.7993 92.6635 59.7765 92.308 59.6161C91.9523 59.4555 91.6692 59.167 91.5186 58.8075C91.368 58.4478 91.3617 58.0449 91.503 57.6815L91.507 57.6731L91.5099 57.6646C91.5553 57.5608 91.9328 56.7901 92.8029 56.0992C93.6873 55.397 95.0624 54.7941 97.0527 55.0325Z" fill="url(#paint4_linear_750_14802)"/>
  <path d="M127.482 58.676C131.506 59.1581 132.209 62.3516 132.247 62.5257L132.248 62.5327C132.328 62.932 132.242 63.3454 132.011 63.6807C131.781 64.0154 131.425 64.2429 131.025 64.318C130.869 64.3478 130.708 64.353 130.55 64.3339L130.549 64.3347C130.226 64.2959 129.923 64.1576 129.683 63.9389C129.45 63.7267 129.288 63.4486 129.22 63.1418C129.215 63.127 129.212 63.116 129.209 63.1052C129.202 63.076 129.195 63.0483 129.155 62.9571C129.105 62.8438 129.019 62.6864 128.878 62.5216C128.602 62.2002 128.086 61.817 127.12 61.7013C126.154 61.5856 125.56 61.8366 125.214 62.0839C125.037 62.2106 124.917 62.3422 124.842 62.4396C124.815 62.4751 124.794 62.5061 124.779 62.5295L124.739 62.6043C124.551 62.9457 124.238 63.2015 123.867 63.3221C123.497 63.4425 123.093 63.42 122.738 63.2596C122.382 63.0991 122.099 62.8106 121.948 62.4511C121.798 62.0913 121.791 61.6884 121.933 61.325L121.937 61.3166L121.94 61.3081C121.985 61.2041 122.363 60.4336 123.233 59.7428C124.117 59.0406 125.492 58.4377 127.482 58.676Z" fill="url(#paint5_linear_750_14802)"/>
  <path d="M32.9091 77.2408C33.1289 75.8247 35.1687 75.8247 35.3885 77.2408L36.1149 81.9215C36.1987 82.4614 36.6223 82.885 37.1622 82.9688L41.8429 83.6952C43.2591 83.915 43.2591 85.9548 41.8429 86.1746L37.1622 86.9011C36.6223 86.9849 36.1987 87.4085 36.1149 87.9484L35.3885 92.629C35.1687 94.0452 33.1289 94.0452 32.9091 92.629L32.1827 87.9484C32.0989 87.4085 31.6753 86.9849 31.1354 86.9011L26.4547 86.1746C25.0385 85.9548 25.0385 83.915 26.4547 83.6952L31.1354 82.9688C31.6753 82.885 32.0989 82.4614 32.1827 81.9215L32.9091 77.2408Z" fill="#9DCEC8"/>
  <path d="M64.4325 7.19104C64.6523 5.77486 66.6921 5.77486 66.9119 7.19104L67.6384 11.8717C67.7222 12.4116 68.1458 12.8352 68.6857 12.919L73.3663 13.6454C74.7825 13.8652 74.7825 15.905 73.3663 16.1248L68.6857 16.8513C68.1458 16.9351 67.7222 17.3587 67.6384 17.8986L66.9119 22.5792C66.6921 23.9954 64.6523 23.9954 64.4325 22.5792L63.7061 17.8986C63.6223 17.3587 63.1987 16.9351 62.6588 16.8513L57.9782 16.1248C56.562 15.905 56.562 13.8652 57.9782 13.6454L62.6588 12.919C63.1987 12.8352 63.6223 12.4116 63.7061 11.8717L64.4325 7.19104Z" fill="#9DCEC8"/>
  <path d="M170.382 55.3512C170.602 53.935 172.641 53.935 172.861 55.3512L173.588 60.0318C173.671 60.5718 174.095 60.9953 174.635 61.0791L179.316 61.8056C180.732 62.0254 180.732 64.0652 179.316 64.285L174.635 65.0114C174.095 65.0952 173.671 65.5188 173.588 66.0587L172.861 70.7394C172.641 72.1556 170.602 72.1556 170.382 70.7394L169.655 66.0587C169.572 65.5188 169.148 65.0952 168.608 65.0114L163.927 64.285C162.511 64.0652 162.511 62.0254 163.927 61.8056L168.608 61.0791C169.148 60.9953 169.572 60.5718 169.655 60.0318L170.382 55.3512Z" fill="#9DCEC8"/>
  <defs>
    <linearGradient id="paint0_linear_750_14802" x1="90.8262" y1="8.46973" x2="80.4866" y2="94.8118" gradientUnits="userSpaceOnUse">
      <stop stop-color="#CAE6E3" stop-opacity="0.3"/>
      <stop offset="1" stop-color="#CAE6E3" stop-opacity="0"/>
    </linearGradient>
    <linearGradient id="paint1_linear_750_14802" x1="113.01" y1="22.3229" x2="113.699" y2="16.5668" gradientUnits="userSpaceOnUse">
      <stop stop-color="#DB042D"/>
      <stop offset="1" stop-color="#EF2539"/>
    </linearGradient>
    <linearGradient id="paint2_linear_750_14802" x1="115.757" y1="30.5912" x2="103.641" y2="118.488" gradientUnits="userSpaceOnUse">
      <stop offset="0.291667" stop-color="#B5DBD6"/>
      <stop offset="0.703125" stop-color="#9DCEC8"/>
      <stop offset="0.9999" stop-color="#9DCEC8"/>
    </linearGradient>
    <linearGradient id="paint3_linear_750_14802" x1="108.727" y1="75.2091" x2="109.319" y2="70.2618" gradientUnits="userSpaceOnUse">
      <stop stop-color="#DB042D"/>
      <stop offset="1" stop-color="#EF2539"/>
    </linearGradient>
    <linearGradient id="paint4_linear_750_14802" x1="95.7632" y1="60.1693" x2="96.104" y2="57.324" gradientUnits="userSpaceOnUse">
      <stop stop-color="#DB042D"/>
      <stop offset="1" stop-color="#EF2539"/>
    </linearGradient>
    <linearGradient id="paint5_linear_750_14802" x1="126.193" y1="63.8129" x2="126.534" y2="60.9676" gradientUnits="userSpaceOnUse">
      <stop stop-color="#DB042D"/>
      <stop offset="1" stop-color="#EF2539"/>
    </linearGradient>
  </defs>
</svg>
